<svg width="47" height="72" viewBox="0 0 47 72" fill="none" xmlns="http://www.w3.org/2000/svg">
<path fill-rule="evenodd" clip-rule="evenodd" d="M0.935791 47.484C0.935791 24.3512 0.944411 23.3045 1.14981 21.5225C1.2676 20.5011 1.42129 19.3947 1.49145 19.0637C2.1303 16.0481 3.41542 13.8066 5.41066 12.2282C7.22602 10.7921 10.1557 9.86556 13.4212 9.69474L14.8024 9.62252L14.7733 17.1608C14.7574 21.3069 14.7574 26.6423 14.7733 29.0175L14.8024 33.3357L16.3931 31.589C18.6441 29.1173 18.6893 29.0672 19.6087 28.036C20.0645 27.5248 20.4635 27.0819 20.4953 27.0518C20.5451 27.0047 24.3579 22.7591 25.299 21.7029C25.4813 21.4983 25.6802 21.2763 25.7409 21.2095C25.8017 21.1427 26.6714 20.1771 27.6734 19.0637C28.6756 17.9502 29.6097 16.9161 29.7492 16.7657C29.8888 16.6152 30.5604 15.8653 31.2419 15.0992L32.4809 13.7063L39.1379 13.704C45.0323 13.702 46.1587 13.7422 45.7121 13.9389C45.6665 13.9589 45.2566 14.3939 44.801 14.9054C44.3455 15.417 43.9228 15.8898 43.8618 15.9563C43.8009 16.0226 43.4463 16.4165 43.0739 16.8317C38.5275 21.9 36.209 24.4792 35.7956 24.9285C35.7348 24.9945 35.3868 25.3881 35.0221 25.803C34.3108 26.6125 33.6684 27.323 32.8557 28.1992C32.4148 28.6744 31.9358 29.2106 30.2711 31.0923C30.0887 31.2983 29.6548 31.7703 29.3069 32.141C28.959 32.5118 28.5768 32.938 28.4576 33.088C28.2414 33.3602 28.2414 33.3616 28.4825 33.6273C28.6155 33.7738 29.0971 34.3114 29.5529 34.8219C30.0086 35.3325 30.4313 35.8031 30.492 35.868C30.5822 35.9641 31.7145 37.2237 32.1494 37.7117C32.3345 37.9194 34.1305 39.9013 34.2486 40.0283C34.3095 40.0936 34.6824 40.5079 35.0774 40.949C35.4724 41.3901 35.8453 41.8044 35.9061 41.8699C35.9668 41.9352 36.1859 42.1857 36.393 42.4264C36.6001 42.667 37.1763 43.3072 37.6735 43.8488C38.1707 44.3905 38.7719 45.0553 39.0096 45.3261C39.2473 45.5969 39.4682 45.8431 39.5006 45.8732C39.5328 45.9033 40.3765 46.8389 41.3754 47.9524C42.3742 49.0658 43.2179 50.0014 43.2502 50.0315C43.2825 50.0616 43.6812 50.5047 44.1362 51.0163C44.5911 51.5279 45.1499 52.1434 45.378 52.3841C45.606 52.6249 45.7931 52.8588 45.7938 52.9039C45.7944 52.949 42.7976 52.986 39.1341 52.986H32.4731L32.1241 52.5756C31.6514 52.0199 31.2714 51.5927 30.7859 51.071C30.5619 50.8303 29.3852 49.5254 28.1712 48.1712C26.9571 46.8171 25.9381 45.6845 25.9067 45.6544C25.8753 45.6243 24.8567 44.4917 23.6433 43.1376C22.4299 41.7834 21.4101 40.6508 21.3773 40.6208C21.3445 40.5907 20.7019 39.8766 19.9492 39.0341C19.1966 38.1915 18.352 37.2559 18.0723 36.955C17.7928 36.654 17.1913 35.9899 16.7356 35.4792C16.2801 34.9684 15.8152 34.4514 15.7026 34.3302C15.5901 34.209 15.3729 33.9498 15.2199 33.7542C15.067 33.5586 14.8976 33.3986 14.8436 33.3986C14.7865 33.3986 14.7573 41.3944 14.7739 52.4936L14.8024 71.5886H7.86908H0.935791V47.484ZM1.40295 5.40575C1.29533 5.33605 1.26947 4.80445 1.29245 3.13416L1.32251 0.953506H1.70923H2.09594L2.1292 1.71697C2.15981 2.41982 2.34002 2.86848 2.59171 2.86848C2.63293 2.86848 2.97611 2.42529 3.35454 1.88364L4.04246 0.898788H4.59502C5.23874 0.898788 5.27542 0.783234 4.16411 2.25634C3.71441 2.8525 3.32659 3.39417 3.30228 3.46004C3.27797 3.52591 3.63 3.96712 4.08444 4.44051C4.53878 4.91389 4.87997 5.35049 4.84241 5.41058C4.80484 5.47076 4.5674 5.49691 4.3146 5.46868C3.92324 5.42502 3.75739 5.31526 3.19654 4.72928C2.83424 4.35088 2.46332 3.96515 2.37217 3.87214C2.22433 3.72134 2.20047 3.79685 2.15119 4.57159C2.09848 5.40061 2.08346 5.44131 1.81972 5.46835C1.66779 5.48399 1.48029 5.45576 1.40295 5.40575ZM5.65307 5.42468C5.61087 5.383 5.5764 4.34628 5.5764 3.12093V0.89299L7.20613 0.923195L8.83587 0.953506V1.3365V1.71949L7.59285 1.75047L6.34983 1.78143V2.32495V2.86848H7.39949H8.44915V3.24731V3.62625L7.42712 3.65766L6.40508 3.68918V4.12688V4.56459L7.59926 4.59566L8.79355 4.62685L8.75941 5.03338L8.72538 5.44001L7.22757 5.47031C6.40375 5.48695 5.69517 5.46648 5.65307 5.42468ZM9.38225 5.35432C9.3523 5.27707 9.64245 4.25524 10.0271 3.08372L10.7265 0.953506H11.1978H11.6693L12.1423 2.37605C12.8886 4.62029 13.0898 5.25858 13.0898 5.38081C13.0898 5.4435 12.8999 5.49472 12.668 5.49472C12.1924 5.49472 12.2615 5.63643 11.5863 3.27882C11.4183 2.69208 11.2413 2.21191 11.193 2.21191C11.1447 2.21191 11.074 2.34727 11.0359 2.51284C10.8471 3.33168 10.1744 5.34032 10.0651 5.411C9.86354 5.54122 9.44114 5.50621 9.38225 5.35432ZM13.6674 5.40575C13.5598 5.33605 13.5339 4.80445 13.5569 3.13416L13.587 0.953506H13.9737H14.3604V3.19675V5.44001L14.0842 5.46835C13.9323 5.48399 13.7448 5.45576 13.6674 5.40575ZM15.2143 5.40302C15.1067 5.3354 15.0808 4.80555 15.1038 3.13416L15.1338 0.953506H15.5206H15.9073L15.9625 2.48548L16.0178 4.01746L16.4491 3.25147C16.6863 2.83018 17.0878 2.14079 17.3411 1.71949C17.8007 0.955147 17.8028 0.953506 18.2909 0.953506H18.78L18.81 3.17191C18.8425 5.58205 18.8376 5.60141 18.2304 5.45052C17.9587 5.383 17.9574 5.37588 17.9268 3.87936L17.8961 2.37605L17.6046 2.86848C17.4443 3.13931 17.1771 3.60711 17.011 3.90803C16.4522 4.91924 16.261 5.22039 16.0901 5.35793C15.8988 5.51212 15.4264 5.53641 15.2143 5.40302ZM20.9839 5.35477C20.954 5.27773 20.9432 4.2559 20.9598 3.08416L20.9898 0.953506L21.4042 0.919579L21.8185 0.885551V2.39137C21.8185 3.98824 21.8986 4.12798 22.1857 3.03262C22.2803 2.67151 22.4482 2.05598 22.5588 1.66478L22.7599 0.953506L23.214 0.920563C23.5736 0.894409 23.6804 0.928665 23.7272 1.0847C23.7598 1.19304 23.9379 1.84161 24.1231 2.52586C24.3083 3.21011 24.487 3.79697 24.5202 3.8299C24.5536 3.86284 24.5808 3.21678 24.5808 2.39433V0.898788H25.0227H25.4647V3.13033C25.4647 5.58402 25.4906 5.49647 24.7651 5.49308C24.2643 5.49067 24.132 5.37041 23.9679 4.76922C23.888 4.47607 23.7163 3.84238 23.5864 3.36089C23.3316 2.41676 23.2009 2.18269 23.1065 2.50179C22.6395 4.08136 22.371 5.06566 22.371 5.19839C22.371 5.41155 22.1347 5.49472 21.5298 5.49472C21.2324 5.49472 21.0167 5.43946 20.9839 5.35477ZM26.2658 5.42228C26.0861 5.35049 26.0752 2.73388 26.2516 2.04001C26.5612 0.822632 28.1984 0.415893 29.119 1.32764C29.5507 1.75517 29.662 2.28896 29.6627 3.93331L29.6634 5.38113L29.3874 5.44975C28.8094 5.59342 28.7795 5.51672 28.7778 3.88406C28.776 2.22242 28.69 1.9076 28.1937 1.74455C27.7879 1.61116 27.2479 1.82936 27.1128 2.18138C27.0571 2.32638 27.0116 3.10133 27.0116 3.90343C27.0116 5.13241 26.9841 5.37238 26.8368 5.4283C26.6379 5.50391 26.4655 5.50205 26.2658 5.42228ZM30.3756 5.35477C30.3457 5.27773 30.3349 4.2559 30.3515 3.08416L30.3815 0.953506H30.7683H31.155L31.2102 1.80288C31.2406 2.27013 31.3027 2.6517 31.3483 2.65094C31.394 2.65028 31.6922 2.64886 32.0113 2.64798C32.8312 2.64557 32.9134 2.5646 32.9781 1.6963L33.0333 0.953506L33.4622 0.918709L33.8913 0.883797L33.8398 1.76534C33.8032 2.39072 33.7329 2.7074 33.598 2.85502C33.4171 3.05308 33.4215 3.07758 33.6902 3.36472C34.2939 4.0099 33.8971 5.10997 32.9746 5.34918C32.2723 5.53116 30.4455 5.5351 30.3756 5.35477ZM34.7091 5.42173C34.6686 5.38168 34.6354 4.3476 34.6354 3.12377V0.898788H35.0173H35.3991L35.4316 1.69214L35.4641 2.48548L36.2432 2.54019C37.5154 2.62959 38.013 3.10112 37.9264 4.13531C37.8395 5.17312 37.3057 5.4794 35.5654 5.48991C35.135 5.49253 34.7496 5.46189 34.7091 5.42173ZM38.5519 5.35477C38.522 5.27773 38.5112 4.2559 38.5278 3.08416L38.5578 0.953506H38.9446H39.3313L39.3632 1.91099L39.3951 2.86848H40.3257H41.2563L41.2882 1.91099L41.3201 0.953506H41.7068H42.0936L42.1235 3.16677L42.1533 5.38004L41.8751 5.4492C41.3399 5.58215 41.2649 5.46715 41.2649 4.51327V3.63446H40.3257H39.3865V4.49817C39.3865 5.18482 39.3507 5.37544 39.2117 5.4283C38.9223 5.53827 38.6096 5.50347 38.5519 5.35477ZM42.5446 5.39985C42.5184 5.35783 42.8031 4.78333 43.1776 4.12327C43.8424 2.9512 43.8595 2.90021 43.9151 1.93835L43.9719 0.953506H44.3586H44.7453L44.8006 1.88364C44.8465 2.65771 44.9068 2.89145 45.1597 3.27663C45.3268 3.53127 45.4635 3.76665 45.4635 3.7998C45.4635 3.83296 45.6597 4.20294 45.8995 4.62204L46.3355 5.38409L46.0652 5.45128C45.523 5.5861 45.3179 5.42436 44.8694 4.509C44.6338 4.02796 44.4066 3.63446 44.3642 3.63446C44.3219 3.63446 44.1322 3.9669 43.9427 4.37309C43.7532 4.77929 43.551 5.17968 43.4934 5.26284C43.3831 5.42173 42.6266 5.53116 42.5446 5.39985ZM32.915 4.4474C33.1294 4.23489 33.1367 3.96033 32.9349 3.68699C32.8153 3.52503 32.6066 3.46901 31.9957 3.43487L31.2102 3.39088V4.0051V4.61931H31.9758C32.5244 4.61931 32.7905 4.57061 32.915 4.4474ZM36.8525 4.50605C36.9965 4.42967 37.0657 4.27789 37.0646 4.04099C37.0617 3.4596 36.9338 3.36353 36.1595 3.36221L35.4641 3.36089L35.4295 3.83843C35.4105 4.10117 35.4214 4.38425 35.4537 4.46764C35.5244 4.65028 36.5285 4.67774 36.8525 4.50605ZM19.4982 1.38464V0.885551L19.9126 0.919579C20.3147 0.952522 20.3279 0.967186 20.3608 1.41857L20.3948 1.88364H19.9465H19.4982V1.38464Z" fill="white"/>
</svg>
