<svg width="61" height="80" viewBox="0 0 61 80" fill="none" xmlns="http://www.w3.org/2000/svg">
<path fill-rule="evenodd" clip-rule="evenodd" d="M26.1318 79.2094C10.6459 76.9502 -0.660779 62.7294 0.985709 47.5832C1.73246 40.7123 4.21113 35.4058 8.98064 30.4673C13.1912 26.1072 18.4126 23.1459 24.1426 21.8678C27.2509 21.1748 34.2841 21.1678 37.1548 21.8554C45.9921 23.9713 52.9861 29.3927 57.0107 37.2466C57.7541 38.6973 58.7365 41.0784 59.1933 42.5379C59.9521 44.9614 60.0258 45.6378 60.0427 50.3319C60.0637 56.2897 59.6217 58.3355 57.2985 63.0312C51.6579 74.4309 38.8713 81.0683 26.1318 79.2094ZM28.8116 77.0412C26.0374 74.3486 26.3755 72.2076 29.8942 70.1857C34.2233 67.6985 34.8948 66.034 33.5043 61.2376C32.1249 56.4811 33.963 54.1871 40.5532 52.4385C46.0217 50.9875 48.1308 49.5491 48.3585 47.1154C48.4603 46.0275 48.4384 45.9555 48.2333 46.7036C47.8437 48.1241 47.3329 48.8885 46.2539 49.6667C44.9643 50.5965 44.0125 50.9406 40.6288 51.701C35.9534 52.7518 33.1678 54.3443 31.917 56.6816C31.1524 58.1102 31.2869 60.618 32.2446 62.7953C33.6955 66.0935 33.1721 67.8297 30.2699 69.3482C27.6833 70.7015 26.6648 71.5539 26.4412 72.552C26.1161 74.0021 26.5677 75.2621 27.9325 76.7134L29.2024 78.0638L27.9754 77.5631C26.4153 76.9266 26.0359 76.5471 25.5078 75.0946L25.0794 73.9163L25.0658 75.1339C25.0421 77.2664 26.1846 78.2458 28.7373 78.2815L30.1092 78.3005L28.8116 77.0412ZM39.3302 77.3532C41.469 76.6786 46.3351 74.3885 46.3351 74.0566C46.3351 73.9386 45.8008 73.7587 45.1475 73.6562C42.8755 73.3 41.3675 71.4741 41.4419 69.1692C41.4659 68.4287 41.5363 68.1943 41.6053 68.6249C42.0199 71.205 42.6655 71.9509 44.4844 71.9509C46.3712 71.9509 47.0599 71.1127 46.8838 69.0313C46.5837 65.4843 43.399 63.5485 39.8265 64.7423C37.9043 65.3845 36.2328 66.7236 35.8322 67.9425C35.3174 69.5096 35.0595 69.7585 33.7224 69.9801C31.9581 70.2722 30.7187 71.1481 30.2971 72.4008C29.8554 73.7131 30.1015 75.3198 30.8418 75.9524C31.5855 76.5882 32.7853 77.1706 32.9729 76.9868C33.0589 76.9024 32.694 76.6127 32.1619 76.343C30.8603 75.6833 30.4806 74.6401 31.0534 73.297C31.298 72.7228 31.6009 72.2533 31.7267 72.2533C31.8526 72.2533 32.4722 72.8132 33.1042 73.4978C34.0638 74.5373 34.2887 75.0407 34.4676 76.551L34.6816 78.3592L36.0481 78.1584C36.7997 78.048 38.2766 77.6855 39.3302 77.3532ZM23.1932 76.7131C22.866 76.0065 22.5952 74.9449 22.5915 74.3547C22.5825 72.9221 22.1606 72.5369 21.0502 72.9478C20.2975 73.2263 20.0536 73.1616 19.201 72.4586C18.0906 71.5427 17.5811 71.4544 17.0468 72.0854C16.545 72.6781 16.7652 73.9435 17.3485 73.8192C17.7051 73.743 17.7233 73.8023 17.4312 74.0934C16.888 74.6356 16.1073 73.909 16.1073 72.8616C16.1073 71.8381 17.1829 70.4391 17.97 70.4391C18.2911 70.4391 19.0416 70.6671 19.6372 70.9455C20.6504 71.419 20.7574 71.419 21.2914 70.9455C22.085 70.2413 22.6689 70.3118 23.4634 71.2074C24.2231 72.0643 24.7728 71.9742 24.522 71.0338C24.2577 70.0433 23.3219 69.7721 19.2152 69.4966C14.3131 69.1676 12.0229 68.7522 10.257 67.8708C7.40664 66.4482 6.25398 64.3362 6.2438 60.5167C6.2367 57.8393 5.86811 56.6746 5.11766 56.957C4.86196 57.0532 4.74536 56.9972 4.85116 56.8294C5.1593 56.3408 6.1929 56.4893 6.50875 57.0677C6.67007 57.3631 6.95323 58.6723 7.1386 59.9767C7.79343 64.5929 9.26719 66.6296 12.4059 67.2555L13.4855 67.4708L12.0648 66.5703C10.0978 65.3237 9.23141 63.5198 9.2493 60.709C9.27428 56.8101 11.4692 54.1079 14.801 53.8741C16.2695 53.771 16.714 53.8614 17.4182 54.4063C17.8849 54.7673 18.2664 55.2124 18.2664 55.3956C18.2664 55.5789 17.9117 55.402 17.478 55.0025C15.9065 53.5554 13.442 54.2769 12.2588 56.5304C11.1793 58.5868 11.4766 61.8015 12.9389 63.8808C14.7702 66.4845 15.6323 66.0724 17.8068 61.5535C20.1757 56.6302 20.6779 56.4303 22.4718 59.6988L23.4385 61.4601L23.6442 59.6756C24.1667 55.1383 22.2343 48.7055 20.0344 47.6612C18.8975 47.1215 17.4669 47.5012 17.169 48.4222C16.8673 49.3535 17.4676 49.7544 18.4836 49.3006C19.3324 48.9214 19.3327 48.922 18.7525 49.5506C18.0533 50.3081 16.8285 50.367 16.0546 49.6804C15.2523 48.9686 15.2924 47.025 16.1212 46.456C16.6736 46.0765 16.6896 45.9994 16.2501 45.834C15.5391 45.5667 14.8205 45.5982 13.029 45.9746C11.1046 46.3792 9.62992 47.5166 9.62992 48.5964C9.62992 50.4423 11.9818 51.2139 12.8464 49.6516C13.2801 48.8679 13.3072 48.8591 13.3189 49.5004C13.3482 51.1226 10.9772 51.9396 9.07472 50.9624C8.10774 50.4659 6.47205 48.8253 5.94892 47.8269C5.64264 47.2424 5.42549 47.1656 4.54086 47.3283C3.68462 47.4858 3.35612 47.3842 2.72782 46.7683L1.9604 46.016L1.74387 47.9983C0.58843 58.5753 6.69074 69.721 16.6159 75.162C18.1313 75.9929 23.0443 77.9498 23.7262 77.9942C23.7605 77.9963 23.5205 77.4197 23.1932 76.7131ZM48.4942 72.2533C48.8335 71.9207 49.1068 71.4103 49.1018 71.1194C49.0929 70.6278 49.0691 70.6293 48.7662 71.14C48.5867 71.4423 48.001 71.9521 47.4646 72.2726C46.5892 72.796 46.5605 72.8559 47.1833 72.8568C47.5652 72.8574 48.1549 72.5859 48.4942 72.2533ZM28.5994 68.842C29.4476 68.4259 30.4161 67.788 30.7514 67.4239C31.6616 66.437 31.558 64.7063 30.5136 63.4481C27.3773 59.6698 27.2848 58.7769 29.682 55.411C30.8473 53.7753 31.3476 52.7635 31.4556 51.8253C31.5996 50.5729 31.5367 50.4514 29.9482 48.9117C29.0368 48.0282 26.1651 45.8978 23.5668 44.1776C17.6492 40.2605 15.4287 38.4554 14.3902 36.7184C12.9957 34.3859 13.5361 33.2315 17.0326 31.0735L18.7291 30.0268V33.0737C18.7291 35.8699 18.8028 36.2509 19.6227 37.7016C20.3697 39.023 22.0486 41.0074 21.6109 40.0516C21.535 39.8853 21.2232 39.2113 20.9188 38.5537C19.0752 34.5752 19.7639 29.673 22.6942 25.9161C23.3105 25.1264 23.7204 24.4799 23.6056 24.4799C23.4906 24.4799 22.2772 25.6035 20.9086 26.9765C19.4197 28.4705 17.5231 29.9935 16.1856 30.7691C13.8192 32.1409 13.0228 33.145 13.0228 34.7572C13.0228 37.2584 15.3593 39.5778 22.8635 44.5257C28.241 48.0715 30.4535 49.9398 30.7786 51.21C31.0019 52.0814 30.4365 53.2851 28.6524 55.7373C26.7009 58.4195 26.7219 60.9289 28.7166 63.4028C31.0229 66.2628 31.063 67.026 28.9624 68.0598C27.2681 68.8937 25.6691 70.082 25.6691 70.5071C25.6691 70.694 25.9816 70.5661 26.3632 70.2229C26.7447 69.8794 27.7512 69.2584 28.5994 68.842ZM51.0506 68.9236C53.7319 66.8561 50.7347 62.734 45.906 61.8474L44.7059 61.6273L45.8354 60.7145C47.1722 59.6344 47.8878 58.3948 47.8495 57.2258C47.823 56.423 47.806 56.4339 47.5173 57.4375C47.0389 59.1014 45.5072 60.4275 42.4024 61.8656C39.408 63.2525 38.7587 63.69 40.7059 63.0088C43.3993 62.0667 46.8153 62.8975 49.2946 65.0981C50.7971 66.4316 51.1404 67.534 50.3458 68.4728C49.848 69.0606 48.679 69.0561 48.178 68.4647C47.8693 68.0997 47.8647 67.8339 48.1574 67.2044C48.4871 66.4951 48.4751 66.45 48.0485 66.7968C47.3548 67.3613 47.4597 68.5158 48.2545 69.0612C49.1823 69.6986 50.1046 69.6529 51.0506 68.9236ZM25.4912 68.6379C27.1195 68.2675 28.27 67.3777 28.3893 66.3962C28.46 65.8138 28.0932 65.0743 27.0757 63.7472C26.299 62.7346 25.5785 61.5729 25.4742 61.1656C25.1506 59.902 25.5359 57.9835 26.5821 55.6493C28.3912 51.6118 27.5467 48.7282 24.0307 46.9385C22.7367 46.2797 22.0042 46.1212 20.2035 46.1113C18.2313 46.1004 17.8963 46.1832 17.2732 46.8372C16.8864 47.243 16.7995 47.4075 17.0798 47.2025C18.8297 45.9223 21.5489 46.3021 23.6571 48.1214C26.4338 50.517 26.96 52.9011 25.5319 56.6129C24.6904 58.7996 24.5177 60.9921 25.1025 62.0685C25.2999 62.4316 26.0094 63.4415 26.6793 64.3126C28.683 66.919 27.7959 68.0029 23.1969 68.5662C20.9036 68.8474 20.8996 68.8496 22.5847 68.881C23.5177 68.8985 24.8255 68.7891 25.4912 68.6379ZM23.0119 66.8863C22.5474 64.9684 21.3407 61.4701 20.9746 60.98C20.622 60.5086 20.3728 60.7541 18.652 63.267C17.5919 64.8154 16.7242 66.3061 16.7242 66.5797C16.7242 67.1959 18.5533 67.6398 21.2796 67.6855L23.2133 67.7178L23.0119 66.8863ZM53.4312 64.6987C53.2171 64.1917 52.2816 63.0959 51.3526 62.2635C49.4313 60.5421 49.4532 60.3943 51.8273 59.0303C53.2828 58.194 55.759 57.93 56.9765 58.4809C57.5267 58.7301 57.5477 58.7053 57.1711 58.2514C55.7741 56.5679 52.079 57.1037 49.5386 59.3584L48.0556 60.6746L49.2773 61.2412C50.7591 61.9288 53.0533 64.1735 53.3137 65.1913C53.4182 65.5986 53.5749 65.8619 53.6622 65.7763C53.7495 65.6908 53.6456 65.2058 53.4312 64.6987ZM56.5086 62.7938C56.5113 62.6632 56.2455 62.6971 55.9173 62.8694C55.2066 63.2422 54.9716 63.2625 54.9716 62.9517C54.9716 62.825 55.2837 62.5867 55.6656 62.4225C56.0851 62.2423 56.3972 61.8066 56.4543 61.3219C56.639 59.7566 54.0623 58.9336 52.8124 60.1587C52.0219 60.9337 52.0256 60.9627 53.1218 62.5776C53.6295 63.326 54.2005 64.3967 54.3902 64.9569L54.735 65.9753L55.6193 64.5034C56.1054 63.6937 56.5058 62.9245 56.5086 62.7938ZM12.3113 65.061C11.36 64.0308 10.7817 62.1522 10.7576 60.0145C10.7314 57.6881 10.3298 58.386 10.2777 60.8487C10.2345 62.8821 11.5068 65.6013 12.5016 65.6013C12.6712 65.6013 12.5855 65.3582 12.3113 65.061ZM41.3506 61.0356C42.0791 60.9927 40.5051 60.5282 39.5057 60.4913C38.8309 60.4662 38.6057 60.67 38.1948 61.6766C37.4395 63.5274 37.5681 63.5999 39.2686 62.2822C40.1319 61.6131 41.069 61.0522 41.3506 61.0356ZM36.7889 60.0832C37.545 58.0467 37.7522 57.9923 40.5338 59.1005C41.5776 59.5162 42.8305 59.8564 43.3178 59.8564C44.4708 59.8564 45.5818 58.7537 46.014 57.1811C46.638 54.9094 45.605 53.2845 44.4363 54.6993C43.9983 55.2293 43.8675 55.2759 43.8675 54.901C43.8675 54.233 44.9156 53.2615 45.8971 53.0203C47.683 52.5806 50.0364 54.8042 50.0364 56.9307V57.6576L51.4766 56.9428C52.5074 56.4312 53.4352 56.228 54.739 56.228C56.3408 56.228 56.6702 56.3348 57.4607 57.1097C57.9555 57.5947 58.4185 57.8989 58.4897 57.7858C58.6489 57.5333 59.172 54.52 59.4289 52.3747C59.6174 50.803 59.6128 50.7918 58.9058 51.1078C57.7917 51.6052 56.5724 50.9968 56.0018 49.6583C55.5811 48.6708 55.5675 48.0663 55.8951 44.8943C56.1011 42.8959 56.2208 40.5127 56.1606 39.5981L56.0511 37.9351L55.5067 40.0516C53.731 46.9539 49.9602 50.9267 42.7207 53.5237C36.0212 55.9272 34.743 56.9165 34.8022 59.6526C34.8208 60.5131 35.0092 61.6252 35.2211 62.1241C35.6619 63.1618 35.631 63.202 36.7889 60.0832ZM33.0922 53.4312C34.1783 51.9614 34.2952 50.2098 33.4025 48.7751C33.0768 48.2511 31.7215 46.9291 30.3908 45.8373C27.546 43.5031 26.0488 41.6708 24.7318 38.9117C22.6112 34.4694 23.395 28.8542 26.6417 25.2292C28.9276 22.6772 33.0719 22.0232 33.0719 24.2144C33.0719 24.8618 31.9957 25.0121 31.715 24.4043C31.6191 24.1963 31.574 24.2985 31.6154 24.6311C31.7036 25.3432 32.8865 25.612 33.5515 25.0707C34.2637 24.4914 34.0777 23.3769 33.149 22.6567C32.4513 22.1157 32.0389 22.0293 30.8245 22.1683C25.5553 22.7722 21.1285 29.0931 21.7688 35.0989C22.2161 39.2933 24.1852 42.296 28.7946 45.8131C32.6178 48.7303 33.4984 49.8448 33.2791 51.4876C33.194 52.1228 32.7532 53.1929 32.2992 53.8654C31.256 55.411 31.8828 55.0679 33.0922 53.4312ZM59.2432 49.7472C59.3056 49.4255 59.0989 48.965 58.7837 48.724C58.2769 48.3363 58.2732 48.3064 58.75 48.4676C59.189 48.6157 59.2898 48.4727 59.2898 47.7017C59.2898 46.1832 58.6223 42.85 58.3734 43.1257C58.0304 43.5058 57.3189 49.4373 57.5465 50.0187C57.8161 50.7078 59.0961 50.5031 59.2432 49.7472ZM42.9008 46.7039C45.9813 45.4521 47.0892 44.5949 47.3634 43.25C47.7912 41.1531 46.072 38.7336 43.6892 38.0796C42.5705 37.7727 42.0961 37.7863 40.9431 38.1582C39.3605 38.6689 39.2103 38.5038 40.3247 37.4776C41.4459 36.445 44.2228 36.2772 45.944 37.1377C48.7484 38.5404 50.1712 41.4258 49.9895 45.343C49.8831 47.6445 49.8979 47.7047 50.4525 47.2128C51.9559 45.8793 53.1261 42.7514 53.5845 38.8422C53.8821 36.3035 53.5765 36.8444 52.8377 40.1629C52.4926 41.7125 51.8649 43.6818 51.4426 44.5396L50.6752 46.0989L50.8955 44.8894C51.5253 41.4349 50.8498 38.9383 48.7527 36.9678C46.7376 35.0744 43.5504 34.4645 41.254 35.5325C39.9663 36.1315 39.338 36.9297 39.0526 38.3287L38.8552 39.2954L40.1664 38.8422C42.7269 37.9565 44.7749 38.5631 46.0282 40.578C47.493 42.9328 46.4504 44.672 42.7429 46.059C40.573 46.8708 38.7124 48.2735 37.9663 49.6604C37.7621 50.0402 38.1421 49.7928 38.841 49.0917C39.7124 48.2172 40.9095 47.513 42.9008 46.7039ZM37.7902 47.2787C38.4749 46.5315 39.9792 45.4811 41.411 44.7509C44.7894 43.0281 45.2999 41.773 43.146 40.4855C41.9653 39.7798 40.8456 39.7399 39.9265 40.3712C39.0699 40.9593 39.0505 41.7545 39.875 42.4859C40.412 42.9625 40.6054 42.9894 41.1387 42.6628C42.0489 42.1059 42.2148 42.4805 41.3142 43.0592C39.2226 44.4026 36.8263 40.9892 37.7038 37.9169C39.1757 32.7635 46.5047 31.5776 50.3501 35.8705C50.8773 36.4589 51.3951 36.855 51.5012 36.751C51.6073 36.647 51.6943 35.7115 51.6943 34.6723C51.6943 33.1608 51.516 32.4614 50.8032 31.1776C49.7838 29.3419 48.7832 28.713 46.8816 28.713C45.2601 28.713 44.1031 29.4199 44.2355 30.3297C44.3154 30.8794 44.5205 30.9744 45.5532 30.9405L46.7761 30.9003L46.0587 31.4696C45.1778 32.1687 43.932 32.2008 42.9819 31.5486C42.4036 31.1516 42.2926 30.8492 42.3984 29.9612C42.4705 29.3579 42.5874 28.6649 42.6587 28.4215C42.7599 28.0753 42.2932 27.9281 40.5156 27.7457C38.5055 27.5398 38.1427 27.5831 37.3732 28.1201C36.1677 28.9615 34.9639 31.528 34.4506 34.3496C33.8741 37.5208 33.8791 43.2213 34.4599 45.343C34.7103 46.2576 34.917 47.3355 34.9188 47.738C34.921 48.1407 35.1641 48.7318 35.4592 49.0514C35.9691 49.6036 36.0114 49.6057 36.3075 49.095C36.4787 48.7993 37.1461 47.982 37.7902 47.2787ZM9.16047 46.5597C9.45133 46.2446 10.3353 45.6731 11.1247 45.2894C12.3961 44.6717 13.0096 44.5916 16.4876 44.5895C20.598 44.587 20.5628 44.2696 16.4157 43.9391C13.628 43.7171 11.0056 44.1937 9.49914 45.1957L8.41187 45.919L8.05993 44.6481C7.6827 43.2872 7.86376 39.5984 8.36869 38.3608L8.66541 37.6327L8.68515 38.3535C8.72093 39.6815 9.42882 41.4609 10.274 42.3477C11.7453 43.8919 14.2582 43.331 14.7356 41.3518C14.8877 40.7213 14.7535 40.36 14.1459 39.7644C13.2684 38.9044 12.7745 38.814 11.996 39.3713C11.5392 39.6984 11.625 39.7492 12.6311 39.7492C13.7474 39.7492 13.794 39.7904 13.794 40.7746C13.794 42.1494 13.0244 42.6419 11.8634 42.0109C9.8665 40.9251 9.26997 36.9179 10.6715 34.0044C11.5176 32.2461 12.2193 31.5655 14.6172 30.1782C16.2529 29.2319 22.259 23.8752 21.6843 23.8752C21.54 23.8752 20.2608 24.9053 18.8417 26.1644C17.4225 27.4234 15.2902 28.954 14.1033 29.566C10.6638 31.3387 8.31502 34.0733 6.85915 37.9998C5.85639 40.7041 6.04516 44.7174 7.29714 47.3083L8.17375 49.1225L8.40293 48.1274C8.52877 47.5801 8.86991 46.8747 9.16047 46.5597ZM4.0603 45.3753C4.23211 45.0602 4.5131 43.5896 4.68429 42.1071C5.03623 39.0623 5.81382 36.6023 7.16852 34.2496C7.67684 33.3664 8.04204 32.6437 7.97974 32.6437C7.73915 32.6437 5.62104 35.983 4.60286 37.9677C4.01496 39.114 3.24909 40.9835 2.90147 42.1225C2.29106 44.1202 2.2892 44.1882 2.84657 44.0452C3.33114 43.9209 3.36969 43.9829 3.08531 44.4289C2.7198 45.0028 2.94064 45.9477 3.44033 45.9477C3.60936 45.9477 3.8885 45.6901 4.0603 45.3753ZM31.2912 43.1451C30.7382 40.8786 30.881 39.7498 32.1419 36.4233C32.8248 34.6215 32.8785 32.2576 32.2813 30.2974C32.1089 29.7323 32.2273 29.5608 32.9642 29.3093C33.4546 29.1417 34.0185 28.749 34.2177 28.4363C34.5647 27.8915 34.5145 27.8836 32.9775 28.2437C24.6241 30.2006 23.403 35.7647 29.7008 43.1744C30.7366 44.3932 31.6305 45.3451 31.6869 45.2894C31.7437 45.2338 31.5657 44.269 31.2912 43.1451ZM44.3508 28.7511C44.8147 28.3934 45.7462 28.0142 46.4211 27.9084L47.6484 27.7161L46.9146 27.1552C44.8154 25.5509 39.8762 23.3754 37.1989 22.8762C36.251 22.6993 36.2368 22.7144 36.2677 23.8722C36.3451 26.7688 32.3149 27.9287 31.0034 25.387C30.707 24.8125 30.6123 24.7614 30.6089 25.1738C30.5963 26.6896 33.4556 27.922 35.2726 27.1842C36.33 26.7549 37.387 25.2987 37.3889 24.2695C37.3901 23.6103 37.4018 23.6088 39.007 24.0763C41.7883 24.8857 46.7006 27.5035 45.4387 27.5035C44.7935 27.5035 42.9425 29.3909 42.9616 30.0295L42.9813 30.6784L43.2444 30.0398C43.3891 29.6887 43.8872 29.1088 44.3508 28.7511ZM13.9195 12.2865C13.1718 11.8998 12.1438 11.0036 11.6348 10.2952C10.8252 9.16856 10.7095 8.74888 10.7095 6.94286C10.7095 5.1311 10.8242 4.71839 11.6478 3.57001C12.9541 1.74767 14.5817 0.906793 16.8136 0.900438C22.6661 0.884416 25.5677 7.55666 21.3373 11.3032C19.7806 12.682 18.9712 12.9901 16.9068 12.9901C15.7979 12.9901 14.8458 12.7658 13.9195 12.2865ZM20.5992 11.4647C21.7975 10.3671 22.2762 9.26682 22.2762 7.61018C22.2762 5.77303 21.2957 3.85574 19.7149 2.60124C18.2677 1.45316 15.557 1.13841 13.984 1.93574C11.0485 3.42366 10.8162 8.05556 13.5494 10.609C15.2794 12.2254 15.7538 12.4114 17.871 12.3041C19.3975 12.2267 19.9542 12.0552 20.5992 11.4647ZM24.1269 6.79168C24.1269 1.66602 24.1719 1.19797 24.6667 1.19766C25.1605 1.19766 25.2065 1.65454 25.2065 6.56461V11.9319L26.092 12.031C28.0547 12.2508 29.3705 11.4136 29.3705 9.94503C29.3705 8.86015 28.4035 7.84995 27.3656 7.84995C26.9415 7.84995 26.5945 7.74685 26.5945 7.62046C26.5945 7.49438 27.3927 6.22324 28.3681 4.79549C29.3434 3.36803 30.2838 1.95872 30.4578 1.66361C30.6317 1.36881 31.0198 1.17741 31.3205 1.23818C31.7696 1.32949 31.4757 1.90278 29.6749 4.44837C28.2774 6.42401 27.6484 7.54759 27.9402 7.54759C28.1919 7.54759 28.8249 7.89984 29.3468 8.33041C30.604 9.36752 30.6629 10.8491 29.4831 11.7586C28.8279 12.2638 28.2299 12.3854 26.3986 12.3854H24.1269V6.79168ZM32.455 6.79168C32.455 2.02101 32.5231 1.19797 32.9176 1.19797C33.3121 1.19797 33.3803 2.02101 33.3803 6.79168C33.3803 11.5624 33.3121 12.3854 32.9176 12.3854C32.5231 12.3854 32.455 11.5624 32.455 6.79168ZM35.5394 6.79168V1.19797H37.123C39.3272 1.19797 40.9955 1.75492 41.8808 2.78628C43.2926 4.43083 42.6013 6.5637 40.4144 7.31114L39.5085 7.62077L40.4459 8.17953C40.9616 8.48673 41.469 9.07271 41.5736 9.4818C42.0612 11.3864 40.6803 12.3854 37.5598 12.3854H35.5394V6.79168ZM43.559 6.79168V1.19797H46.952C48.8181 1.19797 50.3449 1.31589 50.3449 1.45982C50.3449 1.60404 49.3961 1.65544 48.236 1.57411C44.9933 1.34673 44.7928 1.53874 44.7928 4.87319V7.62016L46.6435 7.48893C47.6614 7.41697 48.4942 7.46867 48.4942 7.60383C48.4942 7.73929 47.6614 7.84995 46.6435 7.84995H44.7928V9.99945V12.1493L47.1062 12.0347C48.3785 11.9718 49.4195 12.0247 49.4195 12.1529C49.4195 12.2808 48.1009 12.3854 46.4893 12.3854H43.559V6.79168ZM39.7889 11.6123C40.267 11.2842 40.4746 10.8328 40.4746 10.1225C40.4746 8.78728 39.3124 7.84995 37.6569 7.84995H36.4648V9.76482C36.4648 10.8182 36.5573 11.7707 36.6705 11.8814C37.057 12.2602 39.1023 12.0839 39.7889 11.6123ZM40.1661 6.85397C41.3114 6.28613 41.7556 5.17072 41.3749 3.81915C40.9545 2.327 39.9826 1.74373 38.111 1.86074L36.619 1.95387L36.5299 4.59955L36.4407 7.24522L37.9179 7.24069C38.7303 7.23827 39.742 7.06411 40.1661 6.85397Z" fill="white"/>
</svg>
