<svg width="126" height="65" viewBox="0 0 126 65" fill="none" xmlns="http://www.w3.org/2000/svg">
<path fill-rule="evenodd" clip-rule="evenodd" d="M56.8621 64.163C55.4523 63.9329 52.9718 63.1458 51.8954 62.5867L51.2005 62.2257L52.9255 62.1263C57.1363 61.8836 60.9181 60.6917 64.0059 58.634L65.0815 57.9171L67.7108 57.8628C69.9761 57.8159 70.5227 57.753 71.6589 57.4083C72.3841 57.1881 73.0023 56.9835 73.0324 56.9536C73.0625 56.9236 71.7085 56.8991 70.0234 56.8991C68.3382 56.8991 66.9056 56.8455 66.8395 56.78C66.7736 56.7145 67.0351 56.4022 67.4205 56.0859C68.7649 54.9833 71.0389 52.5881 72.1289 51.1266C74.034 48.5723 75.3934 45.9127 76.0611 43.4333C76.2128 42.8703 76.3855 42.3527 76.4451 42.2831C76.5047 42.2137 76.6796 42.7806 76.8338 43.5431C77.1968 45.3373 77.2034 48.2468 76.8489 50.1067C75.533 57.0106 70.1048 62.5424 63.2092 64.0063C61.6514 64.3371 58.4183 64.4169 56.8621 64.163ZM50.5594 61.1047C49.8358 60.3101 48.575 56.8258 48.2265 54.6576C47.9827 53.1417 48.029 49.7096 48.3151 48.0794C48.6685 46.0657 49.5144 43.674 50.6365 41.5164C51.7567 39.3627 52.0598 38.9915 51.8705 40.005C51.5609 41.6634 51.5222 44.2945 51.7819 46.051C52.6003 51.5884 55.6091 55.3591 60.4352 56.8964C60.9146 57.0492 61.365 57.2267 61.436 57.2909C61.6393 57.4749 59.5785 58.8528 57.6343 59.833C55.6152 60.8509 53.643 61.3877 51.9219 61.3877C51.0599 61.3877 50.7604 61.3255 50.5594 61.1047ZM48.062 60.066C45.4341 57.8174 43.4299 54.5524 42.5181 51.0343C42.1005 49.4227 41.9458 46.2676 42.1998 44.541C42.9117 39.7024 45.5155 35.4257 49.4149 32.69C50.4051 31.9953 52.4981 30.8337 52.7598 30.8337C52.8136 30.8337 52.548 31.1938 52.1694 31.6337C49.7376 34.4602 47.6748 37.9263 46.7409 40.7559C44.7399 46.8185 45.4027 53.6821 48.562 59.6159C48.9884 60.417 49.3152 61.0727 49.288 61.0727C49.2609 61.0727 48.709 60.6196 48.062 60.066ZM62.1782 55.4235C60.6821 54.9476 58.9816 53.9538 57.852 52.8951C56.6121 51.7329 55.6789 50.034 55.3522 48.344C55.0728 46.8985 55.2544 44.0414 55.7529 42.0399C56.5314 38.9145 58.5065 34.5555 60.6522 31.2275L61.6675 29.6525L62.3588 29.6963C62.739 29.7203 63.5493 29.8751 64.1595 30.0403C67.0002 30.8092 69.4725 32.1981 71.7121 34.2833L73.1335 35.6069L73.0352 36.6458C72.4151 43.2026 70.2411 48.2863 65.8974 53.3373C64.4382 55.0339 63.6702 55.7256 63.2634 55.7094C63.1462 55.7048 62.6577 55.5761 62.1782 55.4235ZM9.08801 12.5349C5.99371 8.2777 2.69623 3.74312 1.76026 2.45844L0.0583496 0.122322H1.15693H2.25534L5.15662 4.13827L8.0579 8.15438H11.3436L14.6294 8.15454L14.6717 4.1778L14.714 0.201065L15.7056 0.154137L16.6974 0.107201L16.6565 10.155L16.6158 20.2029L15.6649 20.2392L14.714 20.2755L9.08801 12.5349ZM99.1041 12.0039C99.1041 6.70354 99.049 3.75997 98.9505 3.82045C98.8661 3.87226 95.6876 7.56189 91.8873 12.0195L84.9774 20.1241H84.1167H83.2562V10.202V0.279816H84.2849H85.3136L85.3546 8.49426L85.3957 16.7085L87.8743 13.8097C89.2375 12.2152 92.3958 8.51867 94.8927 5.59525L99.4325 0.279816H100.323H101.213L101.11 2.05163C101.054 3.02605 101.007 7.52645 101.007 12.0525L101.006 20.2816H100.055H99.1041V12.0039ZM103.858 10.2807V0.279816H104.889H105.919V4.21718V8.15454H109.215H112.512L115.356 4.22663L118.201 0.298553L119.284 0.289268C119.879 0.284065 120.343 0.342499 120.314 0.419201C120.285 0.495899 117.016 4.99347 113.05 10.4136L105.839 20.2687L104.849 20.2752L103.858 20.2816V10.2807ZM19.3891 10.1232V0.122322L25.6887 0.128464L31.9882 0.134605L32.5429 0.87294C32.848 1.27896 33.1214 1.66608 33.1504 1.73302C33.1795 1.79995 30.5586 1.85476 27.3263 1.85476H21.4494V10.9894V20.1241H20.4193H19.3891V10.1232ZM29.1694 19.3407C28.8457 18.9098 28.5809 18.52 28.5809 18.4745C28.5809 18.429 30.3282 18.3917 32.4637 18.3917H36.3464V9.24944V0.107361L37.3369 0.154137L38.3274 0.201065L38.2631 9.29638L38.1989 18.3917H41.597H44.9951L45.5837 19.1751C45.9073 19.606 46.1721 19.9958 46.1721 20.0413C46.1721 20.0868 42.4789 20.1241 37.965 20.1241H29.758L29.1694 19.3407ZM48.2658 13.785C48.288 10.2985 48.3277 5.83339 48.3542 3.86282L48.4024 0.279816H54.9583H61.5141L62.0718 1.02792L62.6295 1.77601L56.461 1.81728L50.2926 1.85838V5.47902V9.09951H55.6471H61.0015L61.59 9.88288C61.9137 10.3138 62.1785 10.7036 62.1785 10.7491C62.1785 10.7946 59.5042 10.8319 56.2355 10.8319H50.2926V14.6118V18.3917H55.7263H61.1599L61.7485 19.1751C62.0721 19.606 62.337 19.9958 62.337 20.0413C62.337 20.0868 59.162 20.1241 55.2813 20.1241H48.2257L48.2658 13.785ZM65.3481 10.2114V0.279816H66.3782H67.4083V4.70321V9.12659L69.9836 9.07242C72.9993 9.00895 73.2137 8.93398 74.3108 7.55921C74.7061 7.06373 75.9357 5.22326 77.043 3.46924L79.0565 0.280136L80.2237 0.279976L81.3909 0.279816L81.1576 0.634178C81.0293 0.829155 79.9075 2.56726 78.6651 4.49673C77.2156 6.74733 76.0958 8.30574 75.5411 8.84389L74.6763 9.68302L75.492 9.77909C77.3023 9.99203 78.8762 11.1354 79.7253 12.8542C80.1002 13.6135 80.1643 13.9346 80.1565 15.0208C80.1491 16.0808 80.0741 16.4452 79.712 17.1807C79.1787 18.2641 78.1349 19.2066 76.9403 19.6834C76.0823 20.026 75.8246 20.0429 70.6967 20.092L65.3481 20.1432V10.2114ZM76.3666 17.9192C77.1438 17.5316 77.602 17.1807 77.9104 16.737C78.4437 15.97 78.6277 14.7594 78.3419 13.8987C78.0617 13.055 77.0161 11.9916 75.8928 11.4079L74.9361 10.9107L71.1722 10.8611L67.4083 10.8113V14.6943V18.5774L71.3349 18.524L75.2616 18.4704L76.3666 17.9192ZM108.534 13.6415C109.928 11.7246 111.093 10.0957 111.122 10.0216C111.151 9.94762 109.992 9.88698 108.547 9.88698H105.919L105.918 11.7375C105.918 12.7553 105.871 14.3853 105.815 15.3599C105.755 16.3849 105.772 17.1306 105.855 17.1292C105.934 17.1278 107.139 15.5584 108.534 13.6415ZM14.6348 13.4306V9.88698H12.0199C10.5817 9.88698 9.40497 9.92856 9.40497 9.97943C9.40497 10.098 14.4818 16.9742 14.5693 16.9742C14.6053 16.9742 14.6348 15.3796 14.6348 13.4306ZM122.14 3.59885C121.566 3.25158 121.215 2.39859 121.366 1.71884C121.42 1.47142 121.68 1.06414 121.943 0.813877C122.34 0.435577 122.556 0.358562 123.216 0.358562C123.93 0.358562 124.064 0.417465 124.552 0.946804C125.343 1.80468 125.218 2.99486 124.268 3.65634C123.785 3.99243 122.743 3.96424 122.14 3.59885ZM124.009 3.41711C124.51 3.15078 124.793 2.31827 124.609 1.656C124.314 0.594646 123.134 0.267059 122.254 1.00256C121.844 1.34558 121.767 1.52182 121.767 2.11211C121.767 2.64743 121.859 2.90588 122.156 3.20055C122.58 3.62201 123.436 3.72202 124.009 3.41711ZM122.559 2.09998C122.559 1.51646 122.628 1.06729 122.717 1.06729C122.805 1.06729 122.876 1.27991 122.876 1.53977C122.876 1.79964 122.943 2.01226 123.025 2.01226C123.108 2.01226 123.301 1.79964 123.456 1.53977C123.61 1.27991 123.793 1.06729 123.861 1.06729C124.05 1.06729 124.01 1.27676 123.75 1.64624C123.54 1.94327 123.542 1.99068 123.76 2.07415C123.92 2.13494 123.989 2.32031 123.956 2.60191C123.911 2.99061 123.836 3.04101 123.233 3.08432L122.559 3.13283V2.09998ZM123.617 2.70507C123.716 2.44993 123.437 2.17653 123.074 2.17212C122.965 2.17085 122.876 2.34693 122.876 2.56348C122.876 2.85422 122.96 2.95722 123.198 2.95722C123.375 2.95722 123.564 2.84382 123.617 2.70507Z" fill="white"/>
</svg>
