<svg width="73" height="72" viewBox="0 0 73 72" fill="none" xmlns="http://www.w3.org/2000/svg">
<path fill-rule="evenodd" clip-rule="evenodd" d="M36.2308 71.5038C36.2308 71.457 36.2752 71.3791 36.3294 71.3308C36.4155 71.254 36.5354 71.2388 37.2789 71.2112C37.7469 71.1938 38.2458 71.159 38.3876 71.1338C38.5294 71.1086 38.7774 71.0865 38.9385 71.0847L39.2316 71.0813V71.3057V71.5299L38.9854 71.5591C38.85 71.5751 38.1748 71.5884 37.485 71.5885C36.2971 71.589 36.2308 71.5845 36.2308 71.5038ZM32.1615 71.4257C32.1282 71.3886 32.0611 71.3582 32.0123 71.3582C31.8925 71.3582 31.8503 71.2038 31.9274 71.0475C31.9786 70.9436 32.0162 70.9227 32.1296 70.9351C32.2061 70.9435 32.4693 70.9604 32.7142 70.9727C32.9592 70.9851 33.1797 71.0146 33.2042 71.0382C33.2287 71.0619 33.4118 71.0813 33.6112 71.0813C34.0196 71.0813 34.1209 71.137 34.1209 71.3615V71.4967L33.1714 71.4949C32.3989 71.4935 32.2107 71.4806 32.1615 71.4257ZM30.6981 71.2057C30.6981 71.1727 30.7677 71.0792 30.8527 70.9981C30.97 70.8862 31.0492 70.8506 31.1809 70.8506H31.3545V71.0583V71.2659H31.0263C30.7878 71.2659 30.6981 71.2495 30.6981 71.2057ZM28.1242 70.689C27.6954 70.5945 27.2894 70.4563 26.6132 70.175C26.0682 69.9482 25.5242 69.7964 24.7434 69.6532C24.5758 69.6225 24.3015 69.528 24.1339 69.4433C23.9662 69.3586 23.692 69.2555 23.5243 69.2142C23.3567 69.1728 23.0824 69.0672 22.9148 68.9796C22.7472 68.8918 22.2513 68.6409 21.8129 68.422C20.2205 67.6267 18.8815 66.8387 17.623 65.9563C17.0663 65.566 16.8685 65.4513 16.7523 65.4513C16.4735 65.4513 15.468 64.73 14.4985 63.8345C14.1891 63.5487 13.7038 63.1285 13.4201 62.9006C13.1319 62.6692 12.8668 62.4161 12.8193 62.3269C12.7544 62.2053 12.6582 62.1327 12.4142 62.0211C12.113 61.8835 12.0838 61.8561 11.9184 61.5575C11.8217 61.383 11.6865 61.2084 11.6178 61.1697C11.5453 61.1287 11.4564 61.01 11.4062 60.8871C11.355 60.7619 11.1735 60.5214 10.9631 60.3001C10.7672 60.0939 10.4908 59.7431 10.349 59.5205C10.0572 59.0627 9.79647 58.8424 9.43811 58.751L9.2071 58.692L8.88723 58.0453C8.68248 57.6313 8.45592 57.2573 8.25772 57.0062C7.97241 56.6447 7.80629 56.3851 7.25377 55.4372C6.7841 54.6314 5.91078 53.6716 5.23832 53.2221C5.03595 53.0869 4.92535 52.9727 4.8454 52.8165C4.69311 52.5189 4.5103 52.0064 4.44428 51.6919C4.38989 51.4331 4.38624 51.4287 4.01348 51.1879C3.71861 50.9974 3.614 50.8993 3.52867 50.7336C3.27473 50.2403 2.82634 49.0674 2.5672 48.2182L2.38508 47.6214L2.56916 47.2913C2.67039 47.1098 2.75324 46.9299 2.75324 46.8916C2.75324 46.7828 2.31433 46.1949 2.12941 46.0561C1.99203 45.953 1.95335 45.8846 1.90829 45.6656C1.87828 45.5195 1.76191 44.9951 1.64975 44.5001C1.38901 43.35 1.15668 42.1537 0.950708 40.9006C0.434009 37.7572 0.392608 36.6143 0.693249 33.7938C1.61487 25.1489 4.24393 18.5072 8.84035 13.2121C10.1425 11.7119 13.1401 8.91038 15.0989 7.3629C16.216 6.48032 17.5122 5.62086 18.7992 4.9094C19.1158 4.73441 19.4774 4.52689 19.6028 4.4483C19.7863 4.33324 19.8809 4.30533 20.0871 4.30533C20.3238 4.30533 20.3575 4.31936 20.529 4.48992C20.6385 4.59873 20.759 4.67451 20.8225 4.67451C20.9847 4.67451 22.2705 4.1356 22.3582 4.03084C22.4003 3.98063 22.4498 3.81939 22.4683 3.6725C22.5436 3.07452 22.718 2.90968 23.5592 2.64082C24.0057 2.49813 24.2617 2.44363 24.569 2.42577C24.9007 2.40648 24.9895 2.38576 25.0257 2.31926C25.1138 2.15714 25.4333 2.08954 26.3141 2.04671C26.9894 2.0139 27.2846 1.97675 27.7911 1.86106C28.6347 1.6683 28.9078 1.60207 29.4087 1.46889C29.7045 1.39021 29.9586 1.35592 30.2587 1.35426C30.53 1.35274 30.749 1.32625 30.8569 1.28186C30.9504 1.24337 31.2854 1.14766 31.601 1.06916C32.1974 0.920845 33.1527 0.828133 34.0505 0.831451C34.5411 0.833252 34.9292 0.947838 34.9578 1.09933C35.0078 1.36459 35.1499 1.36418 35.4127 1.09805C35.6104 0.897812 35.6277 0.890381 35.8967 0.890381C36.1483 0.890381 36.187 0.903763 36.2925 1.02721C36.3569 1.10248 36.4243 1.24978 36.4423 1.35454L36.4749 1.54499L36.6928 1.51587C37.2954 1.43534 37.4489 1.43405 37.4782 1.50927C37.5032 1.57342 37.6459 1.5826 38.6173 1.5826H39.7278L39.9369 1.37129L40.1459 1.15998L40.4975 1.19067C40.8851 1.22449 41.352 1.22999 41.7937 1.20599C42.0179 1.1938 42.1017 1.20821 42.1724 1.2711C42.2461 1.33668 42.3514 1.35186 42.7319 1.35186C43.1713 1.35186 43.2076 1.35911 43.3108 1.46723C43.4097 1.57083 43.4576 1.5826 43.7803 1.5826C44.1657 1.5826 44.7348 1.70443 45.0301 1.85012C45.1289 1.8989 45.3545 1.95151 45.5314 1.96711C45.9203 2.00135 46.119 2.10513 46.2334 2.33379C46.3187 2.50436 46.3213 2.50556 46.6085 2.50547C46.842 2.50538 46.988 2.54252 47.3665 2.69818C47.6244 2.80418 47.9043 2.94923 47.9884 3.02043C48.2118 3.20945 48.3617 3.27507 48.8623 3.40309C49.3061 3.51661 49.506 3.59636 49.7344 3.75109C49.7988 3.79479 49.9465 3.84491 50.0626 3.86254C50.1786 3.88012 50.3791 3.9529 50.508 4.02419C50.8434 4.20971 51.4309 4.45785 51.8887 4.60727C52.1057 4.67811 52.409 4.81831 52.5628 4.91886C52.849 5.106 53.2774 5.31075 53.5912 5.41043C53.6881 5.44122 53.7889 5.50605 53.8153 5.55455C53.8704 5.65585 54.0967 5.78206 54.2233 5.78206C54.2706 5.78206 54.4128 5.88534 54.5391 6.01155C54.7177 6.1901 54.8371 6.26278 55.0765 6.33883C55.5861 6.50067 55.8609 6.64816 55.9595 6.81268C56.0752 7.00558 56.1789 7.08315 57.0019 7.59189C57.3758 7.82304 57.7903 8.09093 57.923 8.18715C58.0558 8.28341 58.2193 8.37576 58.2864 8.39232C58.3536 8.40894 58.4085 8.43755 58.4085 8.45596C58.4085 8.53991 58.7678 8.83027 58.9419 8.88708C59.1773 8.96387 59.4096 9.24546 59.6632 9.76149C59.8136 10.0674 59.8638 10.1283 60.0153 10.1884C60.1126 10.2269 60.2215 10.2584 60.2574 10.2584C60.2933 10.2584 60.4234 10.3986 60.5467 10.5699C60.8083 10.9338 60.8184 10.9421 61.0367 10.9782C61.176 11.0012 61.222 11.0408 61.3177 11.2204C61.5811 11.7146 62.3417 12.3009 62.9481 12.4773C63.1249 12.5287 63.195 12.5942 63.4991 12.9914C63.8732 13.4802 63.906 13.5844 63.78 13.8814C63.7147 14.035 63.7167 14.0432 63.8386 14.1278C64.0248 14.257 64.4067 14.4396 64.6259 14.5041C64.7475 14.5399 64.8459 14.6068 64.8935 14.6862C64.9349 14.7552 65.0646 14.9031 65.1818 15.0148C65.3793 15.2033 65.3947 15.2349 65.3947 15.4521C65.3947 15.6577 65.4275 15.7373 65.6643 16.1057C65.9255 16.512 65.9405 16.5262 66.143 16.5572C66.2975 16.5808 66.3987 16.635 66.5299 16.7641L66.7076 16.939V17.3843C66.7076 17.6555 66.7324 17.8877 66.7712 17.9781C66.8942 18.2652 67.2065 18.5963 67.4776 18.7269C67.6205 18.7956 67.861 18.9691 68.0123 19.1122C68.2388 19.3267 68.3137 19.4393 68.4375 19.7506L68.5877 20.1287L68.4849 20.3275C68.4283 20.4368 68.3295 20.5941 68.2655 20.6769L68.149 20.8275L68.2548 21.1153C68.406 21.5262 68.6092 21.9128 68.8488 22.2453L69.0567 22.5337H69.47C69.8153 22.5337 69.9033 22.5493 70.0052 22.6281C70.146 22.7371 70.2235 22.9701 70.2238 23.2851C70.224 23.4065 70.2558 23.5804 70.2944 23.6715C70.334 23.7646 70.3648 23.977 70.3648 24.1564C70.3648 24.548 70.4767 24.7906 70.74 24.9698C70.8411 25.0386 70.9247 25.1247 70.9256 25.161C70.9291 25.2898 71.2682 26.6721 71.4301 27.2178C71.5205 27.5223 71.6119 27.8857 71.6332 28.0253C71.6545 28.1649 71.7355 28.4559 71.8133 28.6721C72.014 29.2302 72.1012 29.775 72.1381 30.7019C72.1667 31.4204 72.1812 31.5248 72.2696 31.648C72.6676 32.2028 72.7718 32.6666 72.7301 33.6986C72.7055 34.3051 72.7132 34.5058 72.7671 34.6706C72.8169 34.8225 72.8319 35.0644 72.8232 35.5705C72.8166 35.9512 72.8332 36.4496 72.8602 36.6781C72.9111 37.1097 72.8712 38.2157 72.7353 40.1392C72.6668 41.1085 72.6354 41.2998 72.4497 41.8814C72.3869 42.0782 72.3254 42.3793 72.3131 42.5505C72.2869 42.9157 71.9674 44.4404 71.797 45.014C71.6735 45.4295 71.3029 46.3375 71.1838 46.5163C71.1459 46.5732 71.115 46.7049 71.115 46.809C71.115 47.0109 71.0629 47.1419 70.9218 47.2948C70.8736 47.3471 70.772 47.6067 70.6961 47.8717C70.6202 48.1367 70.4849 48.5316 70.3954 48.7494C70.079 49.5193 68.9602 51.634 68.0902 53.1067C67.3902 54.2915 66.8502 55.2517 66.5328 55.8756C66.144 56.6399 65.9216 57.0086 65.6416 57.3536C65.5185 57.5052 65.3254 57.8057 65.2124 58.0215C64.7308 58.9406 64.2122 59.6295 63.8168 59.8753C63.457 60.099 63.2546 60.3238 63.0233 60.7569C62.8225 61.1332 62.5243 61.4394 62.2023 61.6C62.0792 61.6613 61.9486 61.7535 61.9122 61.8047C61.8758 61.8559 61.7108 61.9837 61.5456 62.0886C61.3804 62.1936 60.8685 62.5699 60.4083 62.9249C59.5919 63.5544 57.4835 64.9789 57.0358 65.2034C56.9126 65.2651 56.5043 65.4293 56.1285 65.5681L55.4453 65.8205H54.1527H52.8601L52.3233 65.5406C51.3318 65.0236 50.9608 64.7712 50.4317 64.254C49.6624 63.502 48.751 62.2472 48.725 61.9045C48.7175 61.8045 48.6855 61.6753 48.6539 61.6173C48.5812 61.4835 48.5664 61.3222 48.5349 60.3198C48.5164 59.7306 48.5249 59.4743 48.5655 59.3998C48.5964 59.343 48.6299 59.0619 48.6399 58.7752C48.6606 58.1788 48.7716 57.8047 49.1781 56.9601C49.6012 56.081 49.9514 55.6139 50.3327 55.4198C50.4227 55.374 50.4859 55.2918 50.5219 55.1736C50.5888 54.9538 50.836 54.7118 51.0765 54.6306C51.2389 54.5758 51.2701 54.5388 51.3703 54.2816C51.4405 54.1013 51.5516 53.9278 51.668 53.8166C51.8906 53.604 52.4583 53.3144 52.6523 53.3144C52.7288 53.3144 52.995 53.234 53.2438 53.1357C53.4927 53.0375 53.8546 52.9184 54.048 52.8711C54.3013 52.8092 54.4587 52.7379 54.6106 52.6164C54.8525 52.4229 55.1294 52.2786 55.3478 52.2322C55.5112 52.1975 55.7359 51.9722 55.7359 51.8431C55.7359 51.798 55.8833 51.6549 56.0759 51.513C56.2628 51.3752 57.1437 50.5535 58.0334 49.687C59.1622 48.5877 59.7008 48.0942 59.8157 48.0542C59.934 48.0129 60.0198 47.932 60.1205 47.7666C60.2705 47.52 60.7828 47.0183 60.9321 46.9716C60.9935 46.9525 61.0322 46.8845 61.0523 46.7606C61.106 46.4303 61.2657 46.0892 61.5288 45.7431C61.8357 45.3394 62.1678 44.7898 62.2799 44.5001C62.3241 44.3859 62.4338 44.2293 62.5236 44.152C62.6558 44.0384 62.7039 43.9461 62.7755 43.6684C62.8242 43.4797 62.927 43.1927 63.0041 43.0307C63.1016 42.8256 63.1445 42.6641 63.1452 42.4991C63.1464 42.2029 63.2673 41.9383 63.4923 41.739C63.6609 41.5897 63.6657 41.5765 63.6608 41.2775C63.6541 40.8667 63.6862 40.6083 63.7602 40.4777C63.8126 40.3852 63.8465 40.1532 63.911 39.4469C63.9179 39.3708 63.9644 39.2254 64.0143 39.1239C64.0905 38.9686 64.1031 38.8541 64.0935 38.4025C64.0854 38.0239 64.1014 37.82 64.1479 37.7103C64.2009 37.5851 64.2099 37.2947 64.1941 36.2166C64.1827 35.4402 64.1532 34.8145 64.1239 34.7264C64.0961 34.6429 64.0865 34.5409 64.1025 34.4997C64.1185 34.4586 64.1107 34.2674 64.085 34.0748C64.0594 33.8822 64.0049 33.4235 63.9641 33.0555C63.7778 31.3789 63.1564 28.9763 62.4541 27.2178C61.6212 25.1321 59.8177 21.9914 58.2923 19.9704C56.6686 17.8193 54.5151 15.8474 51.6333 13.8733C48.6221 11.8105 45.3517 10.2413 42.4668 9.47537C40.0189 8.82542 36.9588 8.53529 34.1443 8.68633C31.1631 8.84632 29.3752 9.14222 27.8555 9.72705C27.513 9.85886 27.2403 9.93537 27.1131 9.93537C26.9873 9.93537 26.8352 9.9775 26.7069 10.0479C26.594 10.1098 26.2907 10.2146 26.0328 10.2808C24.7518 10.6098 23.618 11.0843 22.404 11.7995C22.1305 11.9606 21.7992 12.1268 21.6677 12.1689C21.5183 12.2168 21.4071 12.2853 21.371 12.3517C21.2992 12.4838 21.0848 12.6119 20.9356 12.6119C20.7546 12.6119 18.9004 13.9544 17.5228 15.0829C15.4628 16.7704 14.0876 18.2845 12.6823 20.4124C11.5226 22.1685 10.6807 23.7988 9.7471 26.0965C8.90233 28.1755 8.4276 29.9634 8.1014 32.294C7.84394 34.1338 7.84779 34.6754 8.14651 38.6624C8.26935 40.3015 8.46356 41.3593 8.96417 43.1157C9.98983 46.7143 12.4335 51.3118 14.7271 53.9581C16.1316 55.5785 17.6283 56.788 19.9767 58.2004C21.2111 58.9428 22.2905 59.7324 23.2794 60.6164C23.5993 60.9024 23.908 61.174 23.9654 61.2198C24.1495 61.3672 27.5509 62.5104 29.9479 63.2307C31.3335 63.647 32.5565 63.9027 33.7458 64.0248C34.0423 64.0552 34.305 64.0979 34.3295 64.1196C34.3999 64.1821 35.3135 64.165 35.8791 64.0904C36.1628 64.0531 36.6164 64.0212 36.8872 64.0196C37.158 64.018 37.4745 63.9969 37.5905 63.9728C37.7066 63.9487 37.9689 63.9179 38.1733 63.9044C38.3779 63.8908 38.5762 63.8544 38.6142 63.8234C38.6808 63.769 38.8071 63.7675 40.27 63.8041C40.5436 63.8109 40.6491 63.7953 40.7154 63.7381C40.7632 63.6969 40.8816 63.6381 40.9785 63.6075C41.0754 63.5769 41.1764 63.512 41.2029 63.4632C41.2456 63.3846 41.3058 63.3746 41.7381 63.3746C42.0061 63.3746 42.3296 63.3983 42.4571 63.4273C42.7403 63.4917 42.8356 63.47 43.1875 63.2611C43.4361 63.1136 43.4961 63.0977 43.806 63.0977C43.9948 63.0977 44.1623 63.1185 44.1782 63.1439C44.2261 63.2202 44.463 63.1959 44.5455 63.1063C44.5878 63.0602 44.6453 62.9616 44.6733 62.8871C44.704 62.8051 44.8174 62.6925 44.9605 62.6017C45.1508 62.4809 45.245 62.4517 45.4437 62.4517C45.6978 62.4517 45.7919 62.5066 45.8155 62.6686C45.8222 62.7144 45.9413 62.8143 46.0813 62.8915L46.335 63.0314L46.3491 63.2959C46.3609 63.5178 46.3496 63.5643 46.2788 63.5852C46.2323 63.5988 46.1163 63.6505 46.021 63.7C45.8102 63.8094 45.5971 63.8152 45.4428 63.7157C45.3324 63.6444 45.3208 63.6473 45.1619 63.7846C44.9475 63.9698 44.6794 64.1031 44.4478 64.1396C44.2931 64.1639 44.2086 64.2274 43.9246 64.5331C43.6414 64.8378 43.5621 64.8975 43.4409 64.8975C43.3311 64.8975 43.2493 64.9456 43.1041 65.0957C42.8227 65.3864 42.7938 65.4015 42.3847 65.4723C42.1788 65.508 41.8675 65.6009 41.6929 65.6788C41.3281 65.8416 41.1168 65.8552 40.6338 65.7471C40.3634 65.6866 40.2654 65.6834 40.0736 65.7286C39.7868 65.7963 39.333 66.0793 39.1664 66.2943C39.0597 66.4319 39.0077 66.4582 38.8046 66.4774C38.6523 66.4918 38.5334 66.5333 38.4726 66.5932C38.3472 66.7165 38.3952 66.866 38.5724 66.9043C38.646 66.9203 38.7443 66.9748 38.791 67.0256C38.9004 67.1446 38.8509 67.2285 38.5626 67.4126C38.3906 67.5224 38.3403 67.5844 38.3187 67.7125C38.26 68.0625 38.0679 68.4329 37.7544 68.8009L37.6004 68.9816L36.9508 69.0161C35.3676 69.1003 35.0917 69.1038 34.6908 69.0444C34.3117 68.9883 34.0795 68.9796 33.5582 69.002C33.3624 69.0103 32.8932 68.9758 31.8468 68.8759C31.5654 68.849 31.3626 68.8023 31.238 68.7355C31.118 68.6713 30.9684 68.6355 30.8199 68.6355C30.5351 68.6355 30.0042 68.549 29.8776 68.482C29.826 68.4547 29.6783 68.4166 29.5494 68.3971C29.4204 68.3778 29.1874 68.3431 29.0317 68.3203C28.8759 68.2974 28.686 68.2472 28.6097 68.2089C28.4282 68.1176 28.0279 68.0356 27.764 68.0356C27.623 68.0356 27.4608 67.9892 27.2703 67.8946C27.1143 67.8171 26.772 67.6831 26.5097 67.5968C26.0662 67.4508 26.0033 67.4417 25.6108 67.4661C25.1938 67.4919 25.1851 67.4903 24.8717 67.3255C24.6915 67.2307 24.4877 67.1588 24.3999 67.1588C24.2878 67.1588 24.2073 67.1194 24.1075 67.0156C24.0317 66.9369 23.8383 66.7797 23.6777 66.6662C23.439 66.4975 23.3297 66.452 23.079 66.4171C22.8904 66.3908 22.705 66.3305 22.5974 66.2605C22.5012 66.1979 22.3486 66.1219 22.2584 66.0917C22.1681 66.0615 22.0247 65.9674 21.9396 65.8825C21.7782 65.7214 21.6612 65.6937 21.5003 65.7784C21.4069 65.8276 21.4077 65.8317 21.5386 65.968C21.7096 66.1462 22.2459 66.5048 22.617 66.6892C22.7755 66.7679 22.9443 66.8806 22.9921 66.9396C23.0398 66.9986 23.1483 67.075 23.2332 67.1092C23.3181 67.1435 23.4708 67.2309 23.5727 67.3036C23.6746 67.3762 23.7987 67.4356 23.8486 67.4356C24.0056 67.4356 24.2199 67.6612 24.3959 68.0117L24.5659 68.3502L24.8874 68.452C25.2262 68.5592 25.2787 68.5578 25.8453 68.4262C26.0258 68.3843 26.3212 68.3467 26.5017 68.3427L26.8299 68.3355L26.8436 68.6934C26.8605 69.1348 26.9254 69.1969 27.3568 69.1841C27.6818 69.1745 27.7442 69.2009 27.7442 69.3479C27.7442 69.4943 27.6421 69.5655 27.3921 69.5932C27.1963 69.615 27.1689 69.6043 27.0202 69.4491C26.9319 69.357 26.827 69.2816 26.7871 69.2816C26.7013 69.2816 26.3376 69.42 26.3376 69.4526C26.3376 69.4651 26.4031 69.5355 26.4832 69.6092C26.5928 69.7099 26.6744 69.743 26.8133 69.743C27.0175 69.743 27.2976 69.8656 27.435 70.015C27.5062 70.0925 27.5792 70.1122 27.7956 70.1122C27.9448 70.1122 28.0799 70.133 28.0958 70.1584C28.1118 70.1838 28.1714 70.2045 28.2283 70.2045C28.2851 70.2045 28.4104 70.2461 28.5066 70.2968C28.6029 70.3476 28.754 70.3891 28.8425 70.3891C29.0743 70.3891 29.2642 70.6133 29.0886 70.6796C28.9163 70.7447 28.3996 70.7497 28.1242 70.689ZM30.9345 70.5461C30.6577 70.4729 30.5037 70.368 30.5392 70.277C30.5755 70.1838 30.8745 70.0661 31.0748 70.0661H31.2607V70.343C31.2607 70.4952 31.2449 70.6185 31.2256 70.6168C31.2062 70.6151 31.0753 70.5833 30.9345 70.5461ZM40.7906 67.9418C40.7031 67.9072 40.6851 67.8647 40.6851 67.6921C40.6851 67.5118 40.7023 67.4755 40.814 67.4188C41.0674 67.2905 41.3148 67.2512 41.6814 67.281C42.0137 67.308 42.0448 67.319 42.0448 67.4105C42.0448 67.5309 41.8652 67.6691 41.4683 67.8539C41.1723 67.9917 40.9798 68.0167 40.7906 67.9418ZM39.1261 67.3395C39.0734 67.2827 39.044 67.1767 39.044 67.0434V66.8357H39.3179C39.5914 66.8357 39.5922 66.8353 39.9518 66.5127C40.2315 66.2617 40.3436 66.1897 40.454 66.1897C40.5719 66.1897 40.6077 66.217 40.664 66.3497C40.7324 66.5107 40.7538 66.9125 40.7038 67.0959C40.653 67.2824 40.1374 67.4368 39.5832 67.4315C39.2764 67.4286 39.1932 67.4119 39.1261 67.3395ZM40.9195 66.6768C40.9195 66.4219 40.9344 66.3692 41.0238 66.3077C41.1766 66.2022 41.3817 66.2198 41.5598 66.3535C41.689 66.4505 41.7166 66.502 41.7166 66.6463C41.7166 66.9037 41.6125 66.9742 41.2323 66.9742H40.9195V66.6768ZM42.671 66.4888C42.6282 66.379 42.7435 65.997 42.8681 65.8361C42.9358 65.7487 43.0704 65.6586 43.2045 65.6113C43.3274 65.5678 43.5406 65.4805 43.6783 65.4172C43.951 65.2918 44.1655 65.2948 44.3707 65.4271C44.4574 65.4831 44.483 65.5406 44.483 65.6798C44.483 65.8836 44.3882 66.0051 44.2291 66.0051C43.972 66.0051 43.3348 66.2943 43.1754 66.4833C43.0906 66.584 42.7097 66.5881 42.671 66.4888ZM30.2476 65.7475C30.3183 65.5663 30.2717 65.4713 30.0177 65.2782C29.817 65.1257 29.7197 65.0821 29.5797 65.0821C29.2568 65.0821 29.1013 65.4176 29.3411 65.5971C29.6154 65.8023 30.1891 65.8975 30.2476 65.7475ZM21.296 65.1859C21.1799 64.91 20.9509 64.7881 20.436 64.7281C20.2197 64.7029 20.2058 64.7085 20.0627 64.8795C19.9036 65.0694 19.8739 65.1744 19.9791 65.1744C20.015 65.1744 20.0941 65.2152 20.155 65.2652C20.2509 65.3439 20.3389 65.3561 20.8172 65.3575L21.3688 65.359L21.296 65.1859ZM47.093 63.2977C47.0335 63.2391 47.0621 62.8871 47.1348 62.785C47.1962 62.6986 47.2516 62.6824 47.4864 62.6824H47.7651V62.9098C47.7651 63.1005 47.7452 63.1526 47.6415 63.2328C47.5211 63.3261 47.1647 63.3682 47.093 63.2977ZM45.1628 46.345C44.6459 46.2918 44.2621 46.1796 43.7562 45.934C42.918 45.5269 42.3068 44.9247 41.903 44.1079C41.5547 43.4034 41.5063 43.1796 41.5084 42.285C41.5102 41.5763 41.5194 41.4965 41.6423 41.1313C41.8788 40.4289 42.1944 39.9175 42.6843 39.4423C43.4333 38.716 44.3144 38.3369 45.3738 38.2852C46.2368 38.2431 46.9741 38.4233 47.7387 38.863C48.1083 39.0755 48.7485 39.6863 49.0144 40.08C49.853 41.3216 49.9121 42.9982 49.1637 44.3155C48.3882 45.6806 46.755 46.5091 45.1628 46.345ZM29.901 42.3543V38.4086H31.5421H33.1831V38.9855V39.5623H32.175H31.167V42.9311V46.2999H30.534H29.901V42.3543ZM24.7738 46.2187C24.6532 46.0267 21.4213 38.476 21.4486 38.4501C21.4964 38.4049 22.7136 38.3799 22.7577 38.4232C22.7765 38.4417 22.9837 38.9288 23.2181 39.5057L23.6443 40.5545L25.054 40.5667L26.4637 40.5789L26.9223 39.5168L27.381 38.4548H28.0549C28.4256 38.4548 28.7288 38.463 28.7288 38.473C28.7288 38.4831 27.9929 40.2326 27.0935 42.361L25.4581 46.2307L25.1282 46.2442C24.9467 46.2516 24.7873 46.2401 24.7738 46.2187ZM34.4491 42.3081V38.3625L35.5392 38.3627C36.8155 38.3631 37.3488 38.4271 37.9612 38.6534C38.5614 38.8754 38.8695 39.0704 39.324 39.5162C39.9119 40.0928 40.1897 40.6085 40.3671 41.4521C40.5385 42.2676 40.4349 43.3529 40.1179 44.0624C39.7747 44.8306 39.1085 45.4887 38.3161 45.8424C37.6283 46.1493 36.905 46.2528 35.4454 46.2534L34.4491 46.2538V42.3081ZM46.2599 45.0753C46.7372 44.9645 47.1797 44.7109 47.5818 44.3176C48.1386 43.7729 48.4215 43.1131 48.4215 42.3591C48.4215 41.5883 48.149 40.9514 47.5796 40.3909C47.0034 39.8238 46.3761 39.5637 45.5848 39.5637C44.7813 39.5637 44.1675 39.8223 43.5666 40.4139C42.988 40.9838 42.7481 41.5523 42.7481 42.3543C42.7481 42.8345 42.8316 43.1977 43.0358 43.606C43.3835 44.3011 44.1323 44.8926 44.8947 45.0745C45.2542 45.1603 45.8917 45.1607 46.2599 45.0753ZM36.997 44.9862C37.7143 44.8604 38.3608 44.4606 38.7289 43.9154C39.0692 43.4112 39.1571 43.1066 39.1594 42.4235C39.1617 41.7189 39.0529 41.3363 38.7046 40.8238C38.1402 39.9932 37.2634 39.5688 36.1019 39.5639L35.715 39.5623V42.3081V45.0539L36.1722 45.0523C36.4236 45.0514 36.7948 45.0217 36.997 44.9862ZM25.5504 42.8513C25.8009 42.2503 25.9991 41.7519 25.9909 41.7439C25.9828 41.7358 25.5635 41.7349 25.0593 41.7418L24.1425 41.7543L24.5953 42.8503C24.8444 43.453 25.0587 43.9457 25.0716 43.9451C25.0845 43.9445 25.3 43.4523 25.5504 42.8513ZM14.5454 35.9865C12.9246 35.6339 11.7429 34.49 11.3505 32.8939C11.233 32.4161 11.2424 31.5746 11.3709 31.0615C11.7281 29.6357 12.825 28.5191 14.2739 28.1067C14.7575 27.969 15.8738 27.9581 16.3506 28.0864C16.6443 28.1654 17.5991 28.601 17.77 28.7339C17.8451 28.7923 17.8519 28.8815 17.8403 29.6619L17.8275 30.5254L17.6634 30.3083C17.3469 29.8896 16.7046 29.4912 16.1131 29.3466C15.7297 29.2528 15.0081 29.2495 14.6626 29.3399C13.2846 29.7004 12.3389 31.0735 12.5494 32.4084C12.6991 33.3586 13.2297 34.1113 14.0359 34.5176C14.5533 34.7783 14.7891 34.8326 15.3894 34.8294C15.8251 34.8271 15.9542 34.8083 16.2213 34.7084C16.6992 34.5295 17.033 34.3159 17.462 33.9144L17.8509 33.5504L17.8279 33.8221C17.8153 33.9715 17.792 34.3604 17.7761 34.6863L17.7472 35.2789L17.4695 35.4556C17.0995 35.6909 16.5954 35.8925 16.1533 35.982C15.72 36.0696 14.9374 36.0718 14.5454 35.9865ZM22.163 35.9863C20.8382 35.7262 19.6511 34.7445 19.1623 33.5047C18.7538 32.4687 18.7953 31.2851 19.2759 30.2666C19.679 29.4123 20.5178 28.6284 21.407 28.2749C21.991 28.0427 22.2357 28.0021 23.032 28.005C23.7212 28.0076 23.8147 28.0182 24.1808 28.136C25.5371 28.5723 26.4743 29.4952 26.9275 30.8404C27.0504 31.2052 27.0598 31.2858 27.062 31.9941C27.0647 32.8701 27.0179 33.0916 26.6864 33.7708C26.1146 34.9425 25.0592 35.7445 23.7664 35.9898C23.347 36.0694 22.5777 36.0677 22.163 35.9863ZM42.7774 35.9823C41.9978 35.811 41.3832 35.489 40.8126 34.9528C40.3799 34.5462 40.1347 34.2098 39.8878 33.684C39.6146 33.1019 39.5359 32.721 39.5388 31.9941C39.5418 31.2578 39.615 30.925 39.9107 30.3037C40.1585 29.7827 40.3822 29.4818 40.837 29.0574C41.6674 28.2824 42.6465 27.9372 43.8617 27.9909C45.8752 28.0798 47.4716 29.5686 47.7163 31.586C47.8089 32.3494 47.6747 33.0673 47.2993 33.8169C46.7884 34.837 45.9557 35.5324 44.8112 35.895C44.472 36.0024 44.3149 36.0236 43.7562 36.0372C43.2856 36.0486 43.0085 36.0331 42.7774 35.9823ZM28.4006 32.0171V28.1176H29.057H29.7135V29.7028V31.2879L30.2371 31.3193C31.1112 31.3715 31.572 31.5357 32.0388 31.961C32.5647 32.4403 32.786 33.0258 32.749 33.84C32.7143 34.604 32.4535 35.1115 31.9049 35.4825C31.3894 35.8312 30.9022 35.9166 29.4288 35.9166H28.4006V32.0171ZM34.2146 32.022V28.1176H34.8711H35.5275V29.7027V31.2877L36.0315 31.3166C36.9642 31.3699 37.511 31.5861 37.9783 32.0864C38.3778 32.5139 38.5737 33.0453 38.5746 33.7034C38.5761 34.7891 38.0266 35.5206 36.9935 35.808C36.7855 35.8659 36.4338 35.8882 35.4689 35.9049L34.2146 35.9265V32.022ZM49.0779 32.0171V28.1176H50.7424H52.4069V28.6945V29.2713H51.3754H50.3439V32.594V35.9166H49.7109H49.0779V32.0171ZM56.4611 35.868C56.443 35.8391 55.6718 34.099 54.7474 32.0012L53.0665 28.1869L53.358 28.1576C53.5183 28.1416 53.8288 28.1264 54.048 28.1239L54.4465 28.1194L54.876 29.1684L55.3054 30.2174L56.7515 30.2282L58.1975 30.2391L58.645 29.213L59.0925 28.1869L59.782 28.1741C60.1612 28.1671 60.4715 28.1671 60.4715 28.1741C60.4715 28.1811 59.7248 29.9209 58.8124 32.0402L57.1532 35.8936L56.8237 35.907C56.614 35.9156 56.4821 35.9014 56.4611 35.868ZM23.9108 34.7044C24.3729 34.5373 24.7151 34.3174 25.041 33.9781C25.382 33.6233 25.6502 33.1449 25.7553 32.7041C25.8586 32.271 25.8241 31.5268 25.6823 31.13C25.407 30.3599 24.7165 29.6803 23.9333 29.4084C23.527 29.2674 22.7226 29.2317 22.3077 29.3363C21.4948 29.5413 20.8567 30.0446 20.4543 30.7983C20.2163 31.2441 20.1334 31.6421 20.1623 32.2017C20.2009 32.9514 20.4468 33.4948 20.9888 34.0282C21.3532 34.3869 21.7858 34.6365 22.2638 34.764C22.7459 34.8926 23.4623 34.8666 23.9108 34.7044ZM44.4852 34.7264C45.3734 34.4173 46.0434 33.7795 46.3109 32.9883C46.6699 31.9265 46.4105 30.8479 45.606 30.0573C45.0705 29.5311 44.4221 29.2713 43.6439 29.2713C42.8116 29.2713 42.2 29.5209 41.6212 30.0967C41.2154 30.5005 41.0061 30.8574 40.8715 31.3755C40.59 32.459 41.0098 33.6265 41.9177 34.2847C42.298 34.5603 42.4978 34.6579 42.9051 34.7667C43.3369 34.8821 44.0933 34.8628 44.4852 34.7264ZM30.7625 34.6516C31.0964 34.5742 31.25 34.4687 31.3916 34.2196C31.6116 33.832 31.5667 33.2376 31.2945 32.9324C31.0477 32.6558 30.8366 32.5806 30.2409 32.5571L29.7135 32.5362V33.6265V34.7168L30.1003 34.716C30.3131 34.7157 30.611 34.6866 30.7625 34.6516ZM36.4968 34.6658C36.6603 34.6378 36.8625 34.5695 36.9461 34.5141C37.3955 34.2162 37.4842 33.3876 37.1142 32.9457C36.875 32.6602 36.659 32.5809 36.055 32.5571L35.5275 32.5362V33.6265V34.7168H35.8636C36.0485 34.7168 36.3334 34.6939 36.4968 34.6658ZM57.248 32.5357C57.4995 31.9457 57.7052 31.4476 57.7052 31.4286C57.7052 31.4096 57.2832 31.3941 56.7675 31.3941C56.2517 31.3941 55.8297 31.4088 55.8297 31.4267C55.8297 31.4875 56.7394 33.6092 56.7652 33.6087C56.7794 33.6085 56.9966 33.1256 57.248 32.5357ZM69.166 28.3676C69.2084 28.2014 69.1455 27.698 69.0687 27.5882C69.0337 27.5382 69.005 27.4023 69.005 27.2863C69.005 27.125 68.9213 26.8865 68.648 26.2698C68.4516 25.8267 68.0181 24.7996 67.6847 23.9874C67.0743 22.5005 66.5527 21.4516 65.7065 20.0098C65.51 19.6749 65.3017 19.3048 65.2437 19.1873C65.1662 19.0303 65.1048 18.9671 65.0119 18.9488C64.9113 18.929 64.7962 18.7907 64.4485 18.2715C64.2082 17.9126 63.8565 17.4397 63.667 17.2206C63.4775 17.0015 63.1169 16.5446 62.8659 16.2053C62.6148 15.8661 62.3236 15.5262 62.2186 15.45C62.0705 15.3426 62.033 15.2888 62.0514 15.2097C62.0705 15.1266 61.9675 15.0066 61.4968 14.5636C61.1789 14.2643 60.4853 13.6041 59.9555 13.0965C59.4256 12.5889 58.6023 11.8629 58.126 11.4832C57.2738 10.804 56.3033 9.99887 55.7329 9.49793C55.5733 9.35783 55.4191 9.24315 55.3901 9.24311C55.2259 9.24302 54.7154 8.9383 54.4627 8.68965C54.218 8.44881 54.117 8.38762 53.6964 8.22577C53.4299 8.12323 53.0255 7.92286 52.7977 7.78049C52.5699 7.63813 52.3382 7.52438 52.2828 7.52774C52.2228 7.53139 52.1514 7.48787 52.1063 7.42004C51.9968 7.25547 51.8168 7.15325 51.569 7.11495C51.1801 7.05477 50.8935 6.91956 50.6358 6.67479C50.4634 6.51096 50.3375 6.43169 50.2197 6.4129C50.1269 6.39804 50.0146 6.35361 49.9703 6.3141C49.9259 6.27455 49.765 6.21059 49.6127 6.17188C49.4604 6.1332 49.2016 6.04003 49.0375 5.96485C48.6889 5.80518 48.6091 5.79609 48.6091 5.91612C48.6091 5.97242 48.6891 6.04967 48.8318 6.13094C48.9542 6.20071 49.1283 6.31447 49.2186 6.38364C49.3088 6.45287 49.5198 6.54373 49.6875 6.58559C50.0131 6.66695 50.2389 6.7868 51.2347 7.40675C51.5829 7.6235 52.3506 8.07496 52.9407 8.40995C54.1719 9.10891 54.9973 9.63444 55.8229 10.2452C56.1414 10.4808 56.4941 10.7137 56.6066 10.7627C56.9438 10.9095 57.2334 11.1258 57.7521 11.618C58.0229 11.875 58.4132 12.2295 58.6195 12.4058C58.8258 12.582 59.312 13.0276 59.7 13.396C60.088 13.7643 60.6267 14.2733 60.8973 14.5271C61.2717 14.8784 61.4307 15.0657 61.563 15.3116C61.6843 15.5368 61.8009 15.6806 61.9484 15.7862C62.0647 15.8696 62.2473 16.0461 62.3541 16.1785C62.5346 16.4023 62.8157 16.9137 62.816 17.0191C62.816 17.0445 62.9105 17.1239 63.0258 17.1956C63.3038 17.3685 63.402 17.49 63.8036 18.1581C63.9903 18.4685 64.3687 19.0661 64.6445 19.486C64.9203 19.9059 65.2981 20.4983 65.4843 20.8026C65.6704 21.1069 65.892 21.4184 65.9768 21.4948C66.1607 21.6606 66.2919 21.9036 66.4006 22.2799C66.4445 22.4322 66.5742 22.715 66.6886 22.9083C66.9364 23.3269 67.2151 23.9481 67.3694 24.4258C67.4309 24.6162 67.5513 24.8861 67.6369 25.0257C67.9304 25.5041 68.2179 26.1455 68.3067 26.52C68.4382 27.0747 68.8633 28.2636 68.973 28.383C69.0954 28.5164 69.1287 28.5137 69.166 28.3676ZM48.1565 5.81094C48.0831 5.7253 47.9491 5.61893 47.8589 5.57449C47.641 5.46729 47.1185 5.32058 46.9544 5.32058H46.8233L46.9535 5.48109C47.1249 5.69249 47.7763 5.94833 48.1799 5.96273L48.2901 5.96665L48.1565 5.81094Z" fill="white"/>
</svg>
