<svg width="54" height="42" viewBox="0 0 54 42" fill="none" xmlns="http://www.w3.org/2000/svg">
<path d="M15.3093 24.0467C17.9815 24.0467 20.097 24.879 21.6557 26.5435C23.3258 28.1039 24.1609 30.1845 24.1609 32.7853C24.1609 35.5941 23.1588 37.8308 21.1547 39.4952C19.2619 41.0557 16.6454 41.8359 13.3051 41.8359C9.40821 41.8359 6.34635 40.4315 4.11953 37.6227C2.00405 34.8139 0.946289 30.8087 0.946289 25.6072C0.946289 20.9258 2.0597 16.6085 4.28652 12.6554C6.51334 8.59818 9.85359 4.54099 14.3072 0.483802C14.4186 0.379772 14.5856 0.327759 14.8082 0.327759C15.1423 0.327759 15.4206 0.483804 15.6433 0.795891C15.866 1.10798 15.866 1.36806 15.6433 1.57612C10.1876 6.77764 7.45973 12.9154 7.45973 19.9895C7.45973 22.9024 8.01644 25.035 9.12985 26.3874C10.1319 24.827 12.1917 24.0467 15.3093 24.0467ZM44.2023 24.0467C46.8745 24.0467 48.9899 24.879 50.5487 26.5435C52.2188 28.1039 53.0539 30.1845 53.0539 32.7853C53.0539 35.5941 52.0518 37.8308 50.0476 39.4952C48.1549 41.0557 45.5384 41.8359 42.1981 41.8359C38.3012 41.8359 35.2393 40.4315 33.0125 37.6227C30.897 34.8139 29.8393 30.8087 29.8393 25.6072C29.8393 20.9258 30.9527 16.6085 33.1795 12.6554C35.4063 8.59818 38.7466 4.54099 43.2002 0.483802C43.3115 0.379772 43.4785 0.327759 43.7012 0.327759C44.0353 0.327759 44.3136 0.483804 44.5363 0.795891C44.759 1.10798 44.759 1.36806 44.5363 1.57612C39.0806 6.77764 36.3527 12.9154 36.3527 19.9895C36.3527 22.9024 36.9094 25.035 38.0228 26.3874C39.0249 24.827 41.0847 24.0467 44.2023 24.0467Z" fill="white"/>
</svg>
