<svg width="19" height="19" viewBox="0 0 19 19" fill="none" xmlns="http://www.w3.org/2000/svg">
<path fill-rule="evenodd" clip-rule="evenodd" d="M0 5.79227C0 2.98447 2.2852 0.71167 5.10023 0.71167H12.9744C12.9745 0.71167 12.9746 0.71167 12.9748 0.71167C15.7895 0.711866 18.075 2.98415 18.075 5.79227V13.6328C18.075 16.441 15.7894 18.7138 12.9744 18.7138H5.1006C2.28565 18.7138 0 16.4414 0 13.6332V5.79227ZM12.9744 1.71167H5.10023C2.8335 1.71167 1 3.54073 1 5.79227V13.6332C1 15.885 2.83379 17.7138 5.1006 17.7138H12.9744C15.2412 17.7138 17.075 15.8847 17.075 13.6328V5.79227C17.075 3.54056 15.2414 1.71187 12.9748 1.71167C12.9746 1.71167 12.9745 1.71167 12.9744 1.71167Z" fill="white"/>
<path fill-rule="evenodd" clip-rule="evenodd" d="M9.03763 6.10864C7.03545 6.10864 5.41602 7.72424 5.41602 9.71269C5.41602 11.7011 7.03545 13.3167 9.03763 13.3167C11.0398 13.3167 12.6593 11.7011 12.6593 9.71269C12.6593 7.72424 11.0398 6.10864 9.03763 6.10864ZM4.41602 9.71269C4.41602 7.16793 6.4872 5.10864 9.03763 5.10864C11.5881 5.10864 13.6593 7.16793 13.6593 9.71269C13.6593 12.2574 11.5881 14.3167 9.03763 14.3167C6.4872 14.3167 4.41602 12.2574 4.41602 9.71269Z" fill="white"/>
<path d="M14.0423 5.60877C14.53 5.60877 14.9254 5.21508 14.9254 4.72943C14.9254 4.24379 14.53 3.8501 14.0423 3.8501C13.5546 3.8501 13.1592 4.24379 13.1592 4.72943C13.1592 5.21508 13.5546 5.60877 14.0423 5.60877Z" fill="white"/>
</svg>
