<svg width="30" height="29" viewBox="0 0 30 29" fill="none" xmlns="http://www.w3.org/2000/svg">
<path d="M28.6531 24.7625H25.64C27.64 22.1207 28.7415 18.8173 28.7415 15.4608C28.7415 7.33342 22.577 0.721191 14.9991 0.721191C7.4214 0.721191 1.25658 7.33371 1.25658 15.4608C1.25658 18.8179 2.35753 22.1213 4.35727 24.7625H1.34672C1.02878 24.7625 0.770752 25.0195 0.770752 25.336V27.548C0.770752 27.8646 1.02878 28.1216 1.34672 28.1216H9.56888C9.88681 28.1216 10.1448 27.8646 10.1448 27.548V25.084C10.1448 24.9475 10.0962 24.8159 10.0075 24.7124L9.97551 24.6748C9.94325 24.6366 9.90581 24.6031 9.86463 24.575C7.03493 22.6222 5.2768 19.1301 5.2768 15.4606C5.2768 9.54027 9.63828 4.72397 14.9991 4.72397C20.3595 4.72397 24.721 9.54056 24.721 15.4606C24.721 19.1456 22.952 22.6452 20.105 24.5939C19.9486 24.7009 19.8553 24.8775 19.8553 25.0662V27.5475C19.8553 27.864 20.1133 28.121 20.4313 28.121H28.6531C28.9711 28.121 29.2291 27.864 29.2291 27.5475V25.3355C29.2291 25.0192 28.9716 24.7625 28.6531 24.7625Z" fill="white"/>
</svg>
