<svg width="15" height="22" viewBox="0 0 15 22" fill="none" xmlns="http://www.w3.org/2000/svg">
<path fill-rule="evenodd" clip-rule="evenodd" d="M13.4665 14.3855V7.36202C13.4665 3.98503 10.7289 1.24744 7.35189 1.24744C3.9749 1.24744 1.2373 3.98503 1.2373 7.36201V14.3855C1.2373 17.7625 3.9749 20.5001 7.35189 20.5001C10.7289 20.5001 13.4665 17.7625 13.4665 14.3855ZM7.35189 0.247437C3.42261 0.247437 0.237305 3.43274 0.237305 7.36201V14.3855C0.237305 18.3148 3.42261 21.5001 7.35189 21.5001C11.2812 21.5001 14.4665 18.3148 14.4665 14.3855V7.36202C14.4665 3.43274 11.2812 0.247437 7.35189 0.247437Z" fill="white"/>
<path d="M8.77479 6.62339C8.77479 7.40589 8.13773 8.04023 7.35187 8.04023C6.56602 8.04023 5.92896 7.40589 5.92896 6.62339C5.92896 5.84089 6.56602 5.20654 7.35187 5.20654C8.13773 5.20654 8.77479 5.84089 8.77479 6.62339Z" fill="white"/>
</svg>
